<?xml version="1.0" encoding="UTF-8"?>
<svg xmlns="http://www.w3.org/2000/svg" id="Layer_1" viewBox="0 0 200 94">
  <defs>
    <style>.cls-1{fill:#6b7c92;}</style>
  </defs>
  <path id="Layer_1-2" class="cls-1" d="M66.06,59.05c-.16.16-.44.37-.83.62-.39.25-.87.48-1.49.73s-1.38.46-2.25.64c-.89.18-1.9.28-3.05.28-2.23,0-4.13-.34-5.74-1.06s-2.96-1.7-3.99-2.98c-1.06-1.26-1.84-2.78-2.32-4.52-.48-1.74-.73-3.65-.73-5.74s.28-3.99.8-5.76c.53-1.77,1.33-3.28,2.41-4.57s2.41-2.29,3.99-3.03c1.61-.73,3.49-1.08,5.64-1.08,1.06,0,2.04.09,2.89.28.87.18,1.61.41,2.25.67.64.25,1.17.53,1.61.83s.73.53.96.71c.25.23.46.48.64.78s.28.62.28.99c0,.55-.21,1.1-.62,1.63-.41.55-.87,1.06-1.35,1.51-.32-.32-.69-.67-1.1-1.01s-.87-.64-1.38-.89c-.5-.25-1.08-.48-1.72-.67s-1.35-.28-2.16-.28c-1.4,0-2.57.28-3.51.85-.94.55-1.7,1.28-2.27,2.2-.57.89-.99,1.93-1.24,3.1s-.37,2.34-.37,3.56c0,1.28.11,2.52.37,3.69.25,1.17.67,2.23,1.26,3.12.6.89,1.4,1.63,2.36,2.18s2.18.83,3.63.83c.76,0,1.47-.09,2.11-.28s1.22-.41,1.7-.71c.48-.28.92-.55,1.28-.87s.67-.55.92-.78c.16.18.37.41.57.69s.41.55.62.87c.18.3.34.6.48.89s.21.57.21.83c0,.37-.07.67-.21.89-.14.25-.34.53-.67.83M81.76,55.28c0,.23-.09.46-.3.71-.21.25-.48.5-.85.71-.37.23-.78.39-1.24.53s-.96.21-1.47.21c-1.03,0-1.79-.28-2.23-.8-.44-.53-.67-1.19-.67-1.95,0-.69.16-1.24.48-1.68s.76-.8,1.26-1.08c.53-.28,1.12-.46,1.79-.57.67-.11,1.35-.18,2.04-.25.18-.02.39-.05.57-.05h.57v4.2l.02.02ZM87.01,48.12c0-1.26-.14-2.36-.41-3.3-.28-.94-.73-1.74-1.38-2.36-.64-.62-1.49-1.1-2.5-1.4-1.03-.3-2.27-.46-3.76-.46-1.08,0-2.09.09-3.05.28-.96.18-1.81.41-2.55.69-.73.3-1.33.62-1.74.96-.44.37-.64.73-.64,1.1,0,.28.11.69.34,1.26.23.55.55,1.08.92,1.54.87-.48,1.77-.92,2.68-1.31.92-.39,1.97-.57,3.14-.57,1.26,0,2.18.23,2.73.67.55.44.85,1.19.85,2.25v.76h-.87c-.32,0-.64,0-.96.05-.99.05-2.07.18-3.24.37s-2.27.55-3.28,1.03c-1.01.5-1.86,1.19-2.52,2.07s-1.01,2.02-1.01,3.4c0,1.12.18,2.07.57,2.85s.87,1.4,1.47,1.86c.6.46,1.26.8,2.02,1.01.73.21,1.49.3,2.23.3,1.42,0,2.64-.23,3.63-.67s1.79-.96,2.39-1.61c.14.71.46,1.26.96,1.65.5.39,1.26.57,2.25.57.46,0,.92-.05,1.33-.11.41-.09.89-.23,1.38-.41-.64-.99-.94-2.57-.94-4.73v-7.73l-.02.02ZM104.64,50.58c0,1.97-.32,3.51-.99,4.61-.64,1.1-1.68,1.65-3.07,1.65-.73,0-1.38-.16-1.93-.46s-.94-.55-1.17-.78v-8.72c0-.53.23-1.01.67-1.45.46-.44,1.24-.67,2.39-.67.76,0,1.4.14,1.93.44.53.28.96.69,1.26,1.22.32.53.53,1.12.67,1.86.14.71.21,1.47.21,2.29M97.25,42.98c-.16-.71-.57-1.22-1.19-1.51-.64-.3-1.4-.46-2.32-.46h-.78c-.23,0-.41.05-.57.07-.21.02-.37.05-.5.09v28.18h5.58v-10.1s.18.23.41.46c.23.23.53.44.94.67s.92.41,1.49.6c.6.18,1.28.28,2.07.28.96,0,1.9-.16,2.87-.5.96-.32,1.81-.89,2.59-1.7.78-.8,1.42-1.9,1.9-3.28.48-1.38.73-3.14.73-5.28,0-1.84-.21-3.37-.64-4.64-.41-1.26-.99-2.27-1.7-3.03-.71-.76-1.51-1.33-2.43-1.65-.92-.34-1.88-.5-2.89-.5-1.42,0-2.59.28-3.53.8-.92.53-1.61,1.06-2.04,1.58M114.78,57.65c.39,1.08,1.06,1.93,2,2.59s2.27.99,3.97.99c.87,0,1.7-.09,2.43-.28s1.38-.41,1.88-.71c.53-.3.92-.6,1.22-.96.28-.34.44-.69.44-1.06,0-.39-.11-.8-.32-1.24s-.53-.96-.94-1.56c-.07.09-.23.21-.44.37s-.44.32-.71.48c-.28.16-.57.28-.92.41-.34.11-.71.18-1.08.18-1.56,0-2.34-.96-2.34-2.87v-8.77h5.76v-4.15h-5.76v-2.91c0-.69-.11-1.24-.32-1.65s-.5-.76-.87-1.01-.76-.41-1.19-.5c-.44-.07-.87-.11-1.31-.11h-.67c-.23,0-.41.05-.62.07-.23.02-.44.05-.62.09v19.07c0,.6.02,1.19.09,1.81.05.6.18,1.17.37,1.72M134.47,48.79c0-1.4.34-2.48,1.01-3.26.67-.78,1.58-1.17,2.71-1.17,1.33,0,2.23.41,2.75,1.24.5.83.76,1.88.76,3.21h-7.23v-.02ZM139.83,57.12c-1.79,0-3.1-.5-3.92-1.49-.83-1.01-1.28-2.25-1.4-3.76h12.12c.02-.14.05-.32.07-.55,0-.23.02-.48.05-.71v-1.26c0-1.15-.16-2.25-.46-3.28s-.78-1.97-1.47-2.78c-.67-.8-1.54-1.45-2.62-1.93s-2.36-.71-3.9-.71c-1.17,0-2.34.18-3.44.57-1.12.39-2.13.99-3.03,1.81s-1.61,1.86-2.13,3.1-.8,2.73-.8,4.45c0,2.11.3,3.85.89,5.23.6,1.38,1.4,2.48,2.36,3.3s2.09,1.4,3.33,1.72,2.5.48,3.81.48c1.42,0,2.66-.16,3.72-.48s1.88-.69,2.46-1.12c.69-.48,1.03-1.03,1.03-1.65,0-.41-.18-.94-.53-1.58-.37-.64-.69-1.17-1.03-1.58-.25.23-.53.46-.83.71-.3.25-.67.5-1.08.71-.41.23-.87.41-1.4.55-.53.16-1.12.23-1.81.23M156.47,43.1c-.16-.71-.57-1.22-1.22-1.56s-1.4-.5-2.27-.5h-.78c-.23,0-.41.02-.57.07-.18.02-.34.05-.48.09v20.03h5.58v-13.29c0-.69.28-1.28.87-1.77.57-.5,1.28-.73,2.13-.73.62,0,1.17.11,1.65.3.46.21.92.5,1.4.89.3-.55.6-1.22.89-2s.46-1.47.46-2.07c0-.37-.09-.69-.28-.96-.18-.25-.44-.46-.76-.62s-.67-.25-1.03-.3c-.37-.05-.71-.09-1.06-.09-.55,0-1.06.09-1.54.25s-.92.37-1.31.62-.73.53-1.01.83-.48.57-.67.8M172.37,43.1c-.16-.71-.57-1.22-1.22-1.56s-1.4-.5-2.27-.5h-.78c-.21,0-.41.02-.57.07-.18.02-.37.05-.48.09v20.03h5.58v-13.29c0-.69.28-1.28.87-1.77.57-.5,1.28-.73,2.13-.73.62,0,1.17.11,1.65.3.46.21.94.5,1.4.89.3-.55.6-1.22.89-2s.46-1.47.46-2.07c0-.37-.09-.69-.3-.96-.18-.25-.44-.46-.76-.62s-.67-.25-1.03-.3c-.37-.05-.71-.09-1.06-.09-.55,0-1.06.09-1.54.25s-.92.37-1.31.62-.73.53-1.01.83-.48.57-.67.8M193.78,55.28c0,.23-.11.46-.32.71-.21.25-.48.5-.85.71-.37.23-.76.39-1.24.53s-.96.21-1.49.21c-1.03,0-1.79-.28-2.23-.8-.44-.53-.67-1.19-.67-1.95,0-.69.16-1.24.5-1.68.32-.44.76-.8,1.26-1.08.53-.28,1.12-.46,1.79-.57s1.35-.18,2.04-.25c.18-.02.39-.05.57-.05h.57v4.2l.05.02ZM199.04,48.12c0-1.26-.14-2.36-.41-3.3-.28-.94-.73-1.74-1.38-2.36-.64-.62-1.47-1.1-2.5-1.4s-2.27-.46-3.76-.46c-1.08,0-2.09.09-3.05.28s-1.81.41-2.55.69c-.73.3-1.33.62-1.74.96-.44.37-.64.73-.64,1.1,0,.28.11.69.34,1.26.23.55.55,1.08.92,1.54.87-.48,1.77-.92,2.68-1.31s1.97-.57,3.14-.57c1.26,0,2.18.23,2.73.67.55.44.85,1.19.85,2.25v.76h-.89c-.32,0-.64,0-.96.05-.99.05-2.07.18-3.24.37s-2.27.55-3.28,1.03c-1.01.5-1.86,1.19-2.52,2.07s-1.01,2.02-1.01,3.4c0,1.12.18,2.07.57,2.85s.87,1.4,1.49,1.86c.6.46,1.26.8,2.02,1.01.73.21,1.49.3,2.23.3,1.42,0,2.64-.23,3.63-.67s1.79-.96,2.39-1.61c.14.71.46,1.26.96,1.65s1.26.57,2.25.57c.46,0,.92-.05,1.33-.11.41-.09.89-.23,1.38-.41-.64-.99-.94-2.57-.94-4.73v-7.73l-.02.02ZM.3,42.02l16.38,5.55-2.2-5.55s-14.18,0-14.18,0ZM26.43,42.02h-9.98l9.98,25.01v-25.01ZM26.43,30.27L0,40.16h26.43v-9.89ZM41.44,24.65l-13.15,4.93v36.85l13.15-41.79Z"></path>
</svg>
