<?xml version="1.0" encoding="UTF-8"?>
<svg xmlns="http://www.w3.org/2000/svg" id="Layer_1" viewBox="0 0 185.72 94">
  <defs>
    <style>.cls-1{fill:#6b7c92;}</style>
  </defs>
  <path class="cls-1" d="M38.29,29.76c.76-.95,1.33-1.9,1.33-3.05,0-1.71-1.52-2.86-3.24-2.86s-3.05,1.14-3.43,2.86l-2.29-.76c.57-3.05,2.86-4.95,5.9-4.95,3.24,0,5.9,2.29,5.9,5.52,0,1.71-.76,3.43-2.1,4.76q-2.48,2.86-5.14,5.9h7.05v2.48h-11.62v-1.14l7.62-8.76ZM41.52,52.62c-2.29,6.48-8.57,11.24-15.81,11.24-9.14,0-16.57-7.43-16.57-16.57s7.43-16.57,16.57-16.57v-9.14C11.62,21.57,0,33.19,0,47.29s11.62,25.71,25.9,25.71,25.71-11.43,25.71-25.71c0-1.33-.19-2.67-.38-4h-20.38v9.33M71.05,55.48c.95,3.43,3.81,5.14,8.38,5.14,4,0,6.67-1.14,7.81-3.24.76-1.33.95-2.86.95-6.48h-5.71c-.19,4.19-.76,5.33-3.05,5.33-1.14,0-2.1-.57-2.48-1.52-.38-1.14-.57-3.81-.57-8.38,0-5.71.19-7.81.76-8.95.38-.76,1.33-1.33,2.48-1.33s2.1.38,2.48,1.14c.38.57.57,1.14.57,4h5.71v-1.71c0-2.48-.38-4.19-1.52-5.33-1.33-1.52-4-2.48-7.05-2.48-3.62,0-6.29,1.14-7.81,3.24-1.14,1.71-1.52,4.38-1.52,11.24,0,4.57.19,7.81.57,9.33ZM91.62,32.05l-.19,27.62h5.71v-11.62h2.86c1.52,0,2.09,0,2.48.57.76.76.95,2.48.95,5.71,0,3.43,0,3.62.19,5.33h6.1c-.19-1.14-.38-1.33-.38-2.67-.19-1.9-.19-3.43-.19-4.19-.19-4.57-1.33-6.48-5.14-6.86,1.9-.38,2.86-.95,3.62-1.9.95-1.14,1.33-2.86,1.33-5.14,0-2.67-.57-4.38-1.9-5.52-1.33-1.14-2.29-1.33-6.48-1.33h-8.95ZM99.62,44.24l-2.29-.19v-7.81h2.48c1.33,0,1.71.19,2.29.57.76.57,1.14,1.9,1.14,3.43,0,2.86-.95,4-3.62,4h0ZM113.91,56.43c1.33,2.48,4,3.62,8,3.62s6.86-1.33,8.19-4c.95-1.52,1.14-4.19,1.14-10.1,0-5.33-.19-8.19-.76-9.71-1.14-3.05-4-4.57-8.38-4.57-3.81,0-6.67,1.33-8,3.62-1.14,1.9-1.33,4.19-1.33,10.67s.19,8.76,1.14,10.48ZM119.05,53.38c-.19-1.14-.38-3.62-.38-7.24,0-4.38.19-7.24.38-8.38.38-1.14,1.52-1.9,3.05-1.9,1.33,0,2.48.57,2.86,1.52.38.95.57,3.43.57,7.62s-.19,7.43-.38,8.57c-.38,1.71-1.33,2.48-3.05,2.48s-2.86-.76-3.05-2.67ZM138.67,59.86h6.48l2.67-12.95c.57-3.24.76-4,1.52-10.29.19,2.86.76,8,1.14,10.29l2.86,12.95h6.29l5.52-27.81h-5.14l-1.71,10.1c-.95,5.14-1.33,8.57-1.71,13.33-.38-5.52-.57-8.76-1.52-13.33l-2.1-10.1h-6.48l-2.29,10.1c-.57,2.48-.95,4.76-2.1,13.33-.38-6.29-.57-9.71-1.14-13.33l-1.9-10.1h-5.71l5.33,27.81ZM167.43,32.05l.19,28h9.71c3.43,0,6.1-1.33,7.24-3.62.76-1.71,1.14-4.19,1.14-9.14,0-1.9,0-4.19-.19-5.9-.38-4.38-1.33-6.67-3.05-8-1.33-1.14-2.67-1.33-7.24-1.33h-7.81ZM175.62,55.48h-2.29v-19.05h2.48c1.71,0,2.86.57,3.24,1.71.38,1.52.57,3.62.57,8.57,0,4.57-.19,6.09-.57,7.24-.38,1.14-1.52,1.52-3.43,1.52h0ZM60.38,72.43h1.9V21.19h-1.9v51.24Z"></path>
</svg>
