<svg class="Appbar_logo__utkwH" fill="none" height="32" viewBox="0 0 154 32" width="154" xmlns="http://www.w3.org/2000/svg"><g clip-path="url(#clip0)"><path d="M38.629 14.3522L28.2452 3.9685C28.0777 3.81105 27.8565 3.72339 27.6267 3.72339C27.3968 3.72339 27.1756 3.81105 27.0082 3.9685L24.9676 6.00913L33.3107 14.3522C33.3923 14.4332 33.4571 14.5296 33.5013 14.6358C33.5455 14.7419 33.5683 14.8558 33.5683 14.9708C33.5683 15.0857 33.5455 15.1996 33.5013 15.3058C33.4571 15.4119 33.3923 15.5083 33.3107 15.5893L24.7328 24.1671L26.7734 26.2078C26.9409 26.3652 27.1621 26.4529 27.3919 26.4529C27.6218 26.4529 27.843 26.3652 28.0104 26.2078L38.629 15.5893C38.7864 15.4218 38.8741 15.2006 38.8741 14.9708C38.8741 14.7409 38.7864 14.5197 38.629 14.3522Z" fill="#009C9C"></path><path d="M20.9391 4.72245L20.1851 3.9685C20.0177 3.81105 19.7965 3.72339 19.5666 3.72339C19.3368 3.72339 19.1156 3.81105 18.9481 3.9685L16.9075 6.00913L18.2619 7.36353L20.921 10.0227L23.5756 7.36353L20.9391 4.72245Z" fill="#40E3E3"></path><path d="M20.6862 20.1489L18.0316 22.8081L16.6772 24.1625L18.7178 26.2031C18.8853 26.3606 19.1065 26.4482 19.3363 26.4482C19.5662 26.4482 19.7874 26.3606 19.9548 26.2031L20.7043 25.4492L23.3634 22.79L20.6862 20.1489Z" fill="#40E3E3"></path><path d="M25.2518 14.3522C25.4092 14.5197 25.4969 14.7409 25.4969 14.9708C25.4969 15.2006 25.4092 15.4218 25.2518 15.5893L20.6874 20.1491L23.3466 22.8082L30.5701 15.5848C30.6517 15.5038 30.7165 15.4074 30.7607 15.3012C30.8049 15.1951 30.8277 15.0812 30.8277 14.9662C30.8277 14.8513 30.8049 14.7374 30.7607 14.6312C30.7165 14.5251 30.6517 14.4287 30.5701 14.3477L23.5994 7.38159L20.9403 10.0407L25.2518 14.3522Z" fill="#1ABAB8"></path><path d="M8.31605 14.6006L15.5395 7.37707L12.8804 4.71793L12.1219 3.9685C11.9545 3.81105 11.7333 3.72339 11.5034 3.72339C11.2736 3.72339 11.0524 3.81105 10.8849 3.9685L0.257358 14.6006C0.17573 14.6815 0.110943 14.7779 0.0667303 14.8841C0.0225181 14.9902 -0.000244141 15.1041 -0.000244141 15.2191C-0.000244141 15.3341 0.0225181 15.4479 0.0667303 15.5541C0.110943 15.6602 0.17573 15.7566 0.257358 15.8376L10.6411 26.2213C10.8086 26.3788 11.0298 26.4664 11.2596 26.4664C11.4895 26.4664 11.7107 26.3788 11.8781 26.2213L12.6411 25.4674L15.3002 22.8082L8.31605 15.8376C8.23442 15.7566 8.16963 15.6602 8.12542 15.5541C8.08121 15.4479 8.05845 15.3341 8.05845 15.2191C8.05845 15.1041 8.08121 14.9902 8.12542 14.8841C8.16963 14.7779 8.23442 14.6815 8.31605 14.6006Z" fill="#87F0F0"></path><path d="M16.3747 14.6006L19.5666 11.4132L16.9074 8.75406L15.553 7.39966L8.32956 14.6231C8.24794 14.7041 8.18315 14.8005 8.13893 14.9066C8.09472 15.0128 8.07196 15.1267 8.07196 15.2416C8.07196 15.3566 8.09472 15.4705 8.13893 15.5767C8.18315 15.6828 8.24794 15.7792 8.32956 15.8602L15.2867 22.8082L16.6411 21.4538L19.3002 18.7947L16.3567 15.8556C16.1992 15.6882 16.1115 15.467 16.1115 15.2371C16.1115 15.0073 16.1992 14.7861 16.3567 14.6186" fill="#40E3E3"></path><path d="M16.3747 15.8375L19.3183 18.7765L22.5056 15.5892C22.5872 15.5082 22.652 15.4118 22.6962 15.3057C22.7404 15.1995 22.7632 15.0856 22.7632 14.9706C22.7632 14.8557 22.7404 14.7418 22.6962 14.6356C22.652 14.5295 22.5872 14.4331 22.5056 14.3521L19.5666 11.4131L16.3747 14.6004C16.2172 14.7679 16.1296 14.9891 16.1296 15.219C16.1296 15.4488 16.2172 15.67 16.3747 15.8375Z" fill="#17CFCF"></path><path d="M46.9553 12.1489C46.9848 10.9738 47.2185 9.81276 47.6461 8.71778C48.0463 7.70865 48.6628 6.79944 49.4521 6.05412C50.2964 5.28394 51.291 4.69676 52.3733 4.32952C53.6839 3.89936 55.0576 3.69331 56.4367 3.72004C57.9725 3.67039 59.504 3.90929 60.9517 4.42433C61.9897 4.80756 62.9468 5.3818 63.7735 6.11733C64.4064 6.68087 64.9087 7.37575 65.2454 8.15345C65.489 8.72049 65.6501 9.3195 65.7239 9.93223C65.7369 10.0452 65.7224 10.1597 65.6815 10.2658C65.6406 10.372 65.5746 10.4666 65.4892 10.5417C65.3213 10.6943 65.102 10.7781 64.8751 10.7765H62.3377C62.1397 10.7857 61.9447 10.725 61.7869 10.6049C61.6648 10.5065 61.5648 10.3834 61.4934 10.2437C61.4483 10.1625 61.3399 9.97737 61.1639 9.69295C60.9312 9.35614 60.6444 9.06018 60.315 8.8171C59.852 8.47316 59.3409 8.19934 58.798 8.00446C58.0425 7.74157 57.2453 7.61917 56.4457 7.64329C55.0767 7.57522 53.7328 8.02855 52.6848 8.91191C52.2126 9.34368 51.8351 9.86876 51.5763 10.4539C51.3175 11.0391 51.183 11.6716 51.1813 12.3115C51.1362 13.106 51.1181 13.9593 51.1181 14.8668C51.1181 15.7742 51.1181 16.6275 51.1813 17.4221C51.24 19.1557 51.7457 20.4153 52.6848 21.1963C53.7556 22.0221 55.0862 22.4383 56.4367 22.3702C57.1549 22.3758 57.8709 22.2909 58.5678 22.1173C59.1774 21.9682 59.7483 21.6912 60.2428 21.3047C60.7277 20.908 61.105 20.3956 61.3399 19.8148C61.6191 19.0958 61.7526 18.3285 61.7327 17.5575V17.2911H57.9086C57.7971 17.2929 57.6865 17.2713 57.5839 17.2278C57.4812 17.1842 57.3888 17.1197 57.3126 17.0383C57.233 16.9619 57.17 16.87 57.1273 16.7683C57.0846 16.6666 57.0631 16.5572 57.0643 16.4469V14.2212C57.0666 13.9976 57.1562 13.7837 57.3139 13.6252C57.4716 13.4666 57.685 13.3759 57.9086 13.3724H65.1325C65.3561 13.3759 65.5695 13.4666 65.7272 13.6252C65.8849 13.7837 65.9745 13.9976 65.9768 14.2212V17.6659C65.9898 18.8467 65.7879 20.0201 65.3808 21.1286C64.9897 22.1556 64.3725 23.0814 63.5748 23.8374C62.7209 24.6439 61.7051 25.2595 60.595 25.6433C57.8919 26.4891 54.995 26.4891 52.292 25.6433C51.2137 25.2864 50.2251 24.7013 49.3934 23.9277C48.6135 23.1642 48.0095 22.2398 47.6236 21.2189C47.204 20.1111 46.9751 18.9403 46.9463 17.7562C46.9463 17.3589 46.9102 16.9209 46.9012 16.4424C46.8921 15.9638 46.9012 15.4672 46.9012 14.9661C46.9012 14.465 46.9012 13.9774 46.9012 13.4943C46.9012 13.0112 46.9283 12.5914 46.9463 12.176" fill="#2A3037"></path><path d="M75.6292 13.1243C75.099 13.1093 74.5711 13.1999 74.0762 13.3906C73.6761 13.5486 73.3098 13.7815 72.9972 14.0769C72.7138 14.3457 72.484 14.6659 72.32 15.0204C72.1751 15.3326 72.0762 15.6641 72.0265 16.0046H79.1055C79.0602 15.6695 78.9816 15.3398 78.8708 15.0204C78.7537 14.6685 78.5611 14.3464 78.3064 14.0769C78.0155 13.776 77.6627 13.5419 77.2726 13.3906C76.7476 13.1949 76.1892 13.1044 75.6292 13.1243ZM67.9543 17.824C67.9461 16.7004 68.1262 15.5834 68.487 14.5193C68.8152 13.5241 69.3369 12.6035 70.022 11.8105C70.6961 11.045 71.5236 10.4297 72.4509 10.0046C73.4446 9.56058 74.5228 9.33725 75.6112 9.34999C76.6982 9.33609 77.7757 9.55467 78.7714 9.99107C79.7046 10.3976 80.5438 10.9924 81.2364 11.7383C81.9155 12.474 82.4432 13.3361 82.7895 14.2755C83.1569 15.2525 83.3436 16.2881 83.3403 17.3319V18.7405C83.3368 18.9645 83.2462 19.1784 83.0878 19.3368C82.9294 19.4952 82.7155 19.5858 82.4915 19.5893H72.0265C72.0159 20.0301 72.1169 20.4665 72.32 20.8579C72.5195 21.2134 72.7936 21.5214 73.1236 21.7608C73.4711 22.0179 73.8628 22.2092 74.2793 22.3252C74.7203 22.448 75.176 22.5103 75.6337 22.5103C76.1842 22.5258 76.7337 22.4573 77.2635 22.3071C77.6346 22.1948 77.9841 22.0208 78.2974 21.7924C78.4728 21.6571 78.6619 21.5406 78.8617 21.4448C79.052 21.3737 79.2547 21.3415 79.4577 21.35H81.9633C82.1926 21.3532 82.4122 21.4436 82.5773 21.6028C82.6605 21.6767 82.7251 21.7692 82.7658 21.8727C82.8066 21.9763 82.8225 22.088 82.8121 22.1987C82.7417 22.6084 82.5746 22.9954 82.3245 23.3274C81.9579 23.8565 81.4992 24.3153 80.9701 24.6818C80.2758 25.1647 79.5156 25.5448 78.7127 25.8105C77.7165 26.1355 76.6722 26.2881 75.6247 26.2619C74.541 26.274 73.466 26.0667 72.4644 25.6525C71.531 25.2661 70.6952 24.677 70.0175 23.9279C69.3331 23.1445 68.8113 22.233 68.4825 21.2462C68.115 20.1401 67.9349 18.9804 67.9498 17.815" fill="#2A3037"></path><path d="M90.8447 20.0811C90.8148 20.6445 91.0004 21.1982 91.3638 21.6297C91.7069 22.0179 92.348 22.2121 93.2916 22.2121H95.2013C95.4249 22.2144 95.6388 22.3039 95.7973 22.4616C95.9558 22.6193 96.0465 22.8327 96.0501 23.0563V25.124C96.0466 25.3481 95.956 25.5619 95.7976 25.7203C95.6392 25.8788 95.4253 25.9693 95.2013 25.9728H92.8808C90.9154 25.9728 89.4105 25.4972 88.3661 24.5462C87.3217 23.5951 86.795 22.1383 86.786 20.176V13.4355H84.7002C84.5894 13.437 84.4796 13.4152 84.3777 13.3717C84.2759 13.3281 84.1843 13.2638 84.1088 13.1827C84.027 13.1077 83.9622 13.0162 83.9186 12.9142C83.8751 12.8123 83.8537 12.7022 83.8559 12.5913V10.5191C83.8545 10.4083 83.8763 10.2985 83.9198 10.1966C83.9634 10.0948 84.0277 10.0032 84.1088 9.92765C84.1849 9.84748 84.2767 9.7837 84.3784 9.74023C84.4801 9.69676 84.5896 9.6745 84.7002 9.67482H86.7724V4.56421C86.7759 4.3414 86.866 4.12868 87.0235 3.97111C87.1811 3.81353 87.3938 3.72346 87.6167 3.71997H90.0004C90.2232 3.72346 90.4359 3.81353 90.5935 3.97111C90.7511 4.12868 90.8412 4.3414 90.8447 4.56421V9.67482H94.9079C95.1243 9.68736 95.328 9.7814 95.4779 9.93803C95.6279 10.0947 95.7129 10.3023 95.716 10.5191V12.5913C95.7125 12.8141 95.6224 13.0268 95.4648 13.1844C95.3073 13.342 95.0946 13.4321 94.8717 13.4355H90.8085L90.8447 20.0811Z" fill="#2A3037"></path><path d="M111.438 17.7924L107.988 8.85787L104.543 17.7924H111.438ZM109.713 4.03169C109.85 4.02169 109.988 4.0402 110.118 4.08604C110.248 4.13188 110.366 4.20406 110.467 4.29805C110.669 4.53198 110.822 4.80358 110.918 5.09715L118.594 24.9075C118.615 24.9779 118.625 25.0509 118.625 25.1242C118.622 25.3483 118.531 25.5621 118.373 25.7205C118.215 25.879 118.001 25.9695 117.777 25.973H115.519C115.362 25.9894 115.203 25.9743 115.052 25.9285C114.901 25.8828 114.76 25.8073 114.639 25.7066C114.491 25.5579 114.375 25.3814 114.296 25.1874L112.941 21.7111H103.04L101.685 25.1874C101.606 25.3814 101.49 25.5579 101.342 25.7066C101.221 25.8073 101.08 25.8828 100.929 25.9285C100.778 25.9743 100.619 25.9894 100.462 25.973H98.2044C97.9811 25.9683 97.7684 25.8773 97.6109 25.719C97.4535 25.5607 97.3635 25.3475 97.3601 25.1242C97.3582 25.0507 97.3689 24.9774 97.3917 24.9075L105.067 5.09715C105.163 4.80358 105.317 4.53198 105.519 4.29805C105.619 4.20406 105.738 4.13188 105.868 4.08604C105.997 4.0402 106.135 4.02169 106.273 4.03169H109.713Z" fill="#2A3037"></path><path d="M132.03 18.6998C132.093 18.1176 132.093 17.5303 132.03 16.9481C131.908 15.5937 131.488 14.6095 130.779 14.0181C130.05 13.4129 129.126 13.0922 128.179 13.1152C127.234 13.0854 126.312 13.4072 125.592 14.0181C125.229 14.3506 124.936 14.7516 124.729 15.1979C124.522 15.6442 124.406 16.127 124.386 16.6186C124.338 17.014 124.317 17.4122 124.323 17.8104C124.317 18.2087 124.338 18.6069 124.386 19.0023C124.441 19.9823 124.873 20.9031 125.592 21.5712C126.303 22.2021 127.228 22.538 128.179 22.5102C129.126 22.5332 130.05 22.2125 130.779 21.6073C131.488 21.0158 131.908 20.0362 132.03 18.6772V18.6998ZM129.127 26.2845C128.542 26.2908 127.959 26.2287 127.389 26.0994C126.923 25.9953 126.469 25.844 126.034 25.6479C125.688 25.4738 125.363 25.2618 125.063 25.0158C124.829 24.8306 124.61 24.6267 124.409 24.4064V31.0791C124.405 31.3031 124.315 31.5169 124.156 31.6754C123.998 31.8338 123.784 31.9243 123.56 31.9278H121.181C120.957 31.9243 120.743 31.8338 120.585 31.6754C120.426 31.5169 120.336 31.3031 120.332 31.0791V10.5192C120.337 10.296 120.428 10.0833 120.586 9.92582C120.744 9.76837 120.958 9.67845 121.181 9.67499H123.56C123.783 9.67845 123.997 9.76837 124.155 9.92582C124.313 10.0833 124.404 10.296 124.409 10.5192V11.2416C124.61 11.0212 124.829 10.8174 125.063 10.6321C125.369 10.3913 125.701 10.1853 126.052 10.0181C126.487 9.82198 126.941 9.67071 127.407 9.56664C127.977 9.43731 128.56 9.37518 129.145 9.38154C130.124 9.36738 131.093 9.57578 131.98 9.99102C132.804 10.3814 133.54 10.936 134.142 11.6208C134.748 12.3158 135.226 13.112 135.556 13.973C135.899 14.8589 136.095 15.7955 136.133 16.745C136.156 17.0565 136.165 17.4222 136.165 17.842C136.165 18.2619 136.165 18.6276 136.133 18.9391C136.095 19.8886 135.899 20.8252 135.556 21.7111C135.226 22.572 134.748 23.3682 134.142 24.0633C133.54 24.748 132.804 25.3026 131.98 25.693C131.086 26.1048 130.11 26.307 129.127 26.2845Z" fill="#2A3037"></path><path d="M149.746 18.6998C149.809 18.1176 149.809 17.5303 149.746 16.9481C149.62 15.5937 149.205 14.6095 148.491 14.0181C147.763 13.4115 146.838 13.0905 145.891 13.1152C144.946 13.0854 144.025 13.4072 143.304 14.0181C142.941 14.3506 142.648 14.7516 142.441 15.1979C142.234 15.6442 142.118 16.127 142.098 16.6186C142.053 17.0142 142.031 17.4122 142.035 17.8104C142.031 18.2087 142.052 18.6067 142.098 19.0023C142.153 19.9823 142.585 20.9031 143.304 21.5712C144.015 22.2022 144.94 22.538 145.891 22.5102C146.838 22.5348 147.763 22.2139 148.491 21.6073C149.205 21.0159 149.62 20.0362 149.746 18.6773V18.6998ZM146.83 26.2619C146.245 26.268 145.662 26.2059 145.092 26.0768C144.626 25.972 144.172 25.8207 143.737 25.6253C143.387 25.4581 143.057 25.2522 142.753 25.0113C142.518 24.826 142.297 24.6222 142.094 24.4019V31.0791C142.095 31.1904 142.072 31.3007 142.029 31.4031C141.986 31.5056 141.922 31.5981 141.841 31.675C141.765 31.7554 141.673 31.8193 141.572 31.8628C141.47 31.9063 141.36 31.9284 141.25 31.9278H138.866C138.642 31.9243 138.429 31.8336 138.271 31.6751C138.114 31.5165 138.024 31.3027 138.022 31.0791V10.5192C138.025 10.2964 138.115 10.0837 138.273 9.92613C138.43 9.76855 138.643 9.67849 138.866 9.67499H141.25C141.472 9.67961 141.684 9.77003 141.842 9.92737C141.999 10.0847 142.089 10.2968 142.094 10.5192V11.2416C142.297 11.0213 142.518 10.8175 142.753 10.6321C143.057 10.3913 143.387 10.1853 143.737 10.0181C144.172 9.82271 144.626 9.67146 145.092 9.56664C145.662 9.43756 146.245 9.37544 146.83 9.38154C147.81 9.36733 148.781 9.57571 149.67 9.99102C150.493 10.3832 151.228 10.9375 151.832 11.6208C152.436 12.316 152.913 13.1122 153.241 13.973C153.585 14.8589 153.78 15.7955 153.819 16.745C153.841 17.0565 153.85 17.4222 153.85 17.842C153.85 18.2619 153.85 18.6276 153.819 18.9391C153.78 19.8886 153.585 20.8252 153.241 21.7111C152.913 22.5718 152.436 23.3681 151.832 24.0633C151.228 24.7466 150.493 25.3009 149.67 25.6931C148.781 26.1084 147.81 26.3167 146.83 26.3025" fill="#2A3037"></path></g><defs><clipPath id="clip0"><rect fill="white" height="32" width="154"></rect></clipPath></defs></svg>