<svg width="86" height="15" viewBox="0 0 86 15" fill="none" xmlns="http://www.w3.org/2000/svg">
<path d="M13.8512 6.3407L10.7834 9.33119L11.5079 13.5549C11.5394 13.7396 11.4636 13.9263 11.3119 14.0366C11.2262 14.0991 11.1242 14.1307 11.0223 14.1307C10.944 14.1307 10.8652 14.1119 10.7933 14.074L7 12.0799L3.20722 14.0735C3.04174 14.1612 2.8403 14.1469 2.68861 14.0361C2.53692 13.9258 2.46107 13.7391 2.49259 13.5544L3.21707 9.3307L0.14876 6.3407C0.0147986 6.20969 -0.0339595 6.01367 0.0241562 5.83588C0.0822718 5.65808 0.236426 5.52757 0.4221 5.50048L4.66208 4.88485L6.55822 1.04232C6.7242 0.705944 7.2758 0.705944 7.44178 1.04232L9.33792 4.88485L13.5779 5.50048C13.7636 5.52757 13.9177 5.65759 13.9758 5.83588C14.034 6.01417 13.9852 6.2092 13.8512 6.3407Z" fill="#E62415"/>
<path d="M31.8512 6.3407L28.7834 9.33119L29.5079 13.5549C29.5394 13.7396 29.4636 13.9263 29.3119 14.0366C29.2262 14.0991 29.1242 14.1307 29.0223 14.1307C28.944 14.1307 28.8652 14.1119 28.7933 14.074L25 12.0799L21.2072 14.0735C21.0417 14.1612 20.8403 14.1469 20.6886 14.0361C20.5369 13.9258 20.4611 13.7391 20.4926 13.5544L21.2171 9.3307L18.1488 6.3407C18.0148 6.20969 17.966 6.01367 18.0242 5.83588C18.0823 5.65808 18.2364 5.52757 18.4221 5.50048L22.6621 4.88485L24.5582 1.04232C24.7242 0.705944 25.2758 0.705944 25.4418 1.04232L27.3379 4.88485L31.5779 5.50048C31.7636 5.52757 31.9177 5.65759 31.9758 5.83588C32.034 6.01417 31.9852 6.2092 31.8512 6.3407Z" fill="#E62415"/>
<path d="M49.8512 6.3407L46.7834 9.33119L47.5079 13.5549C47.5394 13.7396 47.4636 13.9263 47.3119 14.0366C47.2262 14.0991 47.1242 14.1307 47.0223 14.1307C46.944 14.1307 46.8652 14.1119 46.7933 14.074L43 12.0799L39.2072 14.0735C39.0417 14.1612 38.8403 14.1469 38.6886 14.0361C38.5369 13.9258 38.4611 13.7391 38.4926 13.5544L39.2171 9.3307L36.1488 6.3407C36.0148 6.20969 35.966 6.01367 36.0242 5.83588C36.0823 5.65808 36.2364 5.52757 36.4221 5.50048L40.6621 4.88485L42.5582 1.04232C42.7242 0.705944 43.2758 0.705944 43.4418 1.04232L45.3379 4.88485L49.5779 5.50048C49.7636 5.52757 49.9177 5.65759 49.9758 5.83588C50.034 6.01417 49.9852 6.2092 49.8512 6.3407Z" fill="#E62415"/>
<path d="M67.8512 6.3407L64.7834 9.33119L65.5079 13.5549C65.5394 13.7396 65.4636 13.9263 65.3119 14.0366C65.2262 14.0991 65.1242 14.1307 65.0223 14.1307C64.944 14.1307 64.8652 14.1119 64.7933 14.074L61 12.0799L57.2072 14.0735C57.0417 14.1612 56.8403 14.1469 56.6886 14.0361C56.5369 13.9258 56.4611 13.7391 56.4926 13.5544L57.2171 9.3307L54.1488 6.3407C54.0148 6.20969 53.966 6.01367 54.0242 5.83588C54.0823 5.65808 54.2364 5.52757 54.4221 5.50048L58.6621 4.88485L60.5582 1.04232C60.7242 0.705944 61.2758 0.705944 61.4418 1.04232L63.3379 4.88485L67.5779 5.50048C67.7636 5.52757 67.9177 5.65759 67.9758 5.83588C68.034 6.01417 67.9852 6.2092 67.8512 6.3407Z" fill="#E62415"/>
<path d="M85.8512 6.3407L82.7834 9.33119L83.5079 13.5549C83.5394 13.7396 83.4636 13.9263 83.3119 14.0366C83.2262 14.0991 83.1242 14.1307 83.0223 14.1307C82.944 14.1307 82.8652 14.1119 82.7933 14.074L79 12.0799L75.2072 14.0735C75.0417 14.1612 74.8403 14.1469 74.6886 14.0361C74.5369 13.9258 74.4611 13.7391 74.4926 13.5544L75.2171 9.3307L72.1488 6.3407C72.0148 6.20969 71.966 6.01367 72.0242 5.83588C72.0823 5.65808 72.2364 5.52757 72.4221 5.50048L76.6621 4.88485L78.5582 1.04232C78.7242 0.705944 79.2758 0.705944 79.4418 1.04232L81.3379 4.88485L85.5779 5.50048C85.7636 5.52757 85.9177 5.65759 85.9758 5.83588C86.034 6.01417 85.9852 6.2092 85.8512 6.3407Z" fill="#E62415"/>
</svg>
