<?xml version="1.0" encoding="UTF-8"?>
<svg xmlns="http://www.w3.org/2000/svg" id="Layer_1" viewBox="0 0 280 94">
  <defs>
    <style>.cls-1{fill:#6b7c92;}</style>
  </defs>
  <path class="cls-1" d="M254.82,32.31c0-1.48,1.21-2.69,2.69-2.69h19.81c1.48,0,2.69,1.21,2.69,2.69v9.72c0,1.48-1.21,2.69-2.69,2.69h-2.04c-1.48,0-3.73.59-5.03,1.31l-7.19,3.99c-1.29.72-1.84.21-1.23-1.14l.83-1.82c.61-1.34-.09-2.44-1.57-2.44h-3.58c-1.48,0-2.69-1.21-2.69-2.69v-9.63h0ZM10.43,45.31c-2.21-.85-4.58-1.44-4.58-3.25,0-1.44,1.08-2.4,2.48-2.4h.61c1.36,0,2.29.64,2.86,2.04.11.36.36.44.61.32l3.97-2.01c.25-.11.36-.57.11-.96-.32-.61-.72-1.19-1.21-1.72-1.4-1.57-3.41-2.69-6.34-2.69h-.61c-4.99.02-8.08,2.97-8.08,7.51s2.97,6.34,6.66,7.81c2.4.96,4.48,1.48,4.48,3.48,0,1.65-1.29,2.36-2.72,2.36h-1c-1.36,0-2.29-.64-2.84-2.04-.11-.36-.36-.44-.61-.32l-3.97,2.01c-.25.11-.36.57-.11.96.36.64.79,1.29,1.32,1.85,1.36,1.51,3.37,2.55,6.21,2.55h1.29c5.09,0,8.06-2.93,8.06-7.45-.02-4.69-2.78-6.56-6.58-8.06ZM27.13,41.3c-4.9,0-8.1,3.01-8.1,7.34v4.88c0,4.33,3.2,7.3,8.1,7.3s8.02-2.93,8.02-7.3v-4.88c0-4.37-3.2-7.34-8.02-7.34ZM29.59,53.69c0,1.29-1.04,2.33-2.44,2.33-1.48,0-2.54-1.04-2.54-2.33v-5.24c0-1.25,1.04-2.33,2.54-2.33,1.4,0,2.44,1.04,2.44,2.33v5.24ZM50.31,34.92c-.68-.15-1.8-.28-2.84-.28-5.94,0-8.17,4.12-8.17,7.38v1c0,.28-.11.4-.44.4h-.93c-.25,0-.4.11-.4.4v4.22c0,.28.15.4.4.4h.93c.36,0,.44.11.44.4v11.14c0,.28.11.4.4.4h4.73c.28,0,.4-.11.4-.4v-11.14c0-.28.11-.4.44-.4h2.61c.28,0,.4-.11.4-.4v-4.2c0-.28-.11-.4-.4-.4h-2.61c-.32,0-.44-.11-.44-.4v-1.08c0-1.4,1-2.29,2.52-2.29.53,0,1.08.08,1.51.21.28.08.44,0,.53-.25l1.25-4.12c.08-.3,0-.49-.32-.59ZM62.28,41.75h-2.69c-.36,0-.47-.11-.47-.4v-2.54c0-.28-.08-.36-.36-.36h-2.54c-.15,0-.36.08-.47.21l-5.01,4.99v2.72c0,.28.11.36.4.36h2.01c.36,0,.47.17.47.44v6.26c0,4.81,3.01,7.3,6.81,7.3h1.68c.36,0,.53-.15.53-.44v-4.12c0-.25-.11-.4-.4-.4h-.68c-1.65,0-2.44-1-2.44-2.72v-5.85c0-.28.11-.44.47-.44h2.69c.28,0,.36-.08.36-.36v-4.28c.02-.28-.08-.4-.36-.4ZM89.32,41.75h-4.84c-.25,0-.4.11-.44.32l-1.8,7.53c-.21.85-.36,2.04-.4,2.89h-.11c-.04-.85-.21-1.93-.44-2.89l-1.84-7.53c-.04-.21-.21-.32-.44-.32h-3.97c-.25,0-.36.11-.4.32l-1.76,7.49c-.21.83-.36,1.93-.44,2.72h-.11c-.04-.79-.19-1.89-.4-2.72l-1.84-7.49c-.04-.21-.15-.32-.4-.32h-5.01c-.36,0-.49.21-.36.53l5.66,17.84c.08.19.21.28.4.28h3.54c.25,0,.36-.08.4-.28l2.21-8.31c.25-.93.44-2.48.44-2.48h.11s.21,1.57.44,2.48l2.16,8.25c.04.21.15.32.4.32h3.48c.21,0,.32-.08.4-.28l5.73-17.84c.11-.28,0-.51-.38-.51ZM98.84,41.3c-2.48,0-4.33.79-5.69,2.04-.76.68-1.36,1.48-1.84,2.36-.25.4-.11.85.11.96l3.97,2.01c.25.11.47.04.61-.32.57-1.4,1.48-2.04,2.84-2.04,1.48,0,2.4,1,2.4,2.29v.21c0,.28-.11.44-.4.44h-3.54c-3.52,0-6.38,1.93-6.38,5.3v.4c0,3.41,2.57,5.45,6.02,5.45h1.4c1.08,0,2.29-.36,3.12-1.04.15-.11.36-.08.4.04l.11.68c.04.21.21.32.44.32h3.94c.25,0,.4-.11.4-.4v-11.35c.02-4.33-3.03-7.34-7.91-7.34ZM98.95,56.05h-1.48c-.85,0-1.32-.53-1.32-1.65,0-.79.57-1.36,1.36-1.36h3.41c.25,0,.32.44.32.57-.08,1.48-1.21,2.44-2.29,2.44ZM120.21,41.83c-.28-.04-.61-.08-1.04-.08-1.51,0-2.97.72-3.61,1.51-.21.19-.53.17-.53-.19v-.93c0-.28-.11-.4-.4-.4h-3.8c-.25,0-.4.11-.4.4v17.84c0,.28.15.4.4.4h4.73c.25,0,.4-.11.4-.4v-10.63c0-1.4,1-2.4,2.4-2.4.61,0,1.12.08,1.61.21.36.08.61-.04.61-.4v-4.54c0-.21-.11-.36-.36-.4ZM130.71,41.18c-4.73,0-8.1,3.41-8.1,7.3v5.16c0,4.33,3.2,7.34,8.1,7.34,2.65,0,4.58-.93,5.94-2.25.64-.64,1.17-1.4,1.61-2.16.25-.4.11-.85-.11-.96l-3.97-2.01c-.25-.11-.47-.04-.61.32-.57,1.4-1.48,2.04-2.84,2.04-1.48,0-2.54-1-2.54-2.29v-.89c0-.28.11-.44.49-.44h9.67c.25,0,.4-.11.4-.4v-3.48c-.02-3.86-3.35-7.3-8.04-7.3ZM133.04,48.77h-4.37c-.32,0-.44-.21-.44-.44l.04-.57c.08-1.15,1.17-2.01,2.61-2.01s2.54.83,2.61,1.97l.04.57c-.02.26-.09.47-.49.47ZM159.7,35.41c-.08-.21-.21-.28-.4-.28h-3.58c-.25,0-.32.08-.4.28l-7.89,24.46c-.11.32.04.53.4.53h5.05c.21,0,.28-.08.36-.28l1.17-3.65c.08-.21.15-.25.44-.25h5.3c.28,0,.36.04.44.25l1.12,3.65c.08.19.17.28.4.28h5.09c.4,0,.53-.21.4-.53l-7.89-24.46ZM158.73,51.76h-2.44c-.4,0-.57-.25-.47-.47l.83-3.25c.4-1.48.72-3.25.81-4.29h.17c.08,1.04.32,2.8.72,4.29l.85,3.25c.06.25-.11.47-.47.47ZM184.8,35.13h-4.73c-.19,0-.4.11-.4.4v5.58c0,.61.11,1.76.11,1.76-.79-.72-2.12-1.12-3.08-1.12-4.37,0-7.53,2.93-7.53,7.3v4.05c0,4.65,2.72,7.3,7.62,7.3,1.12,0,2.44-.36,3.29-1.08.25-.21.53-.13.53.19v.61c0,.15.11.28.32.28h3.88c.25,0,.4-.11.4-.4v-24.48c-.02-.28-.19-.4-.42-.4ZM179.66,53.44c0,1.32-1.08,2.33-2.48,2.33s-2.44-1-2.44-2.33v-4.81c0-1.29,1-2.25,2.44-2.25s2.48.96,2.48,2.25v4.81ZM205.95,41.75h-5.09c-.21,0-.36.11-.44.32l-3.01,8.63c-.17.44-.4,1.48-.47,2.01h-.11c-.08-.53-.28-1.48-.49-2.01l-3.12-8.66c-.08-.21-.19-.28-.4-.28h-5.09c-.36,0-.47.25-.36.57l7.17,17.8c.08.19.25.28.4.28h3.73c.21,0,.36-.08.44-.28l7.21-17.8c.11-.34,0-.57-.36-.57ZM213.61,41.75h-4.77c-.28,0-.4.11-.4.4v17.84c0,.28.11.4.4.4h4.77c.23,0,.36-.11.36-.4v-17.84c0-.28-.17-.4-.36-.4ZM225.17,46.12c1.25,0,2.16.79,2.84,2.4.11.28.32.36.61.25l3.94-1.76c.25-.11.32-.36.21-.68-.36-.83-.76-1.61-1.29-2.25-1.32-1.76-3.29-2.76-6.34-2.76-4.98,0-7.98,3.01-7.98,7.34v4.88c0,4.33,3.01,7.3,7.98,7.3,2.8,0,4.65-.83,5.96-2.33.68-.76,1.21-1.68,1.65-2.72.11-.32.04-.53-.21-.64l-3.94-1.8c-.28-.11-.47-.04-.61.25-.68,1.61-1.61,2.44-2.84,2.44-1.48,0-2.44-1.04-2.44-2.33v-5.24c.02-1.31.98-2.35,2.46-2.35ZM242.5,41.18c-4.73,0-8.1,3.41-8.1,7.3v5.16c0,4.33,3.22,7.34,8.1,7.34,2.65,0,4.56-.93,5.92-2.25.64-.64,1.15-1.4,1.61-2.16.25-.4.11-.85-.11-.96l-3.97-2.01c-.25-.11-.47-.04-.61.32-.57,1.4-1.48,2.04-2.84,2.04-1.48,0-2.54-1-2.54-2.29v-.89c0-.28.11-.44.47-.44h9.67c.25,0,.4-.11.4-.4v-3.48c0-3.86-3.33-7.3-8-7.3ZM244.81,48.77h-4.37c-.32,0-.44-.21-.44-.44l.04-.57c.08-1.15,1.17-2.01,2.61-2.01s2.52.83,2.61,1.97l.04.57c0,.26-.08.47-.49.47ZM211.21,33.88c-1.55,0-2.82,1.27-2.82,2.82s1.27,2.82,2.82,2.82,2.82-1.27,2.82-2.82-1.27-2.82-2.82-2.82Z"></path>
</svg>
