<svg width="43" height="33" viewBox="0 0 43 33" fill="none" xmlns="http://www.w3.org/2000/svg">
<path d="M19.17 0V2.03C13.11 5.52 9.37 9.94 7.95 15.29C9.49 14.29 10.88 13.79 12.14 13.79C14.24 13.79 16.01 14.64 17.45 16.33C18.89 18.02 19.62 20.1 19.62 22.55C19.62 25.26 18.67 27.54 16.77 29.37C14.87 31.21 12.53 32.13 9.76 32.13C6.99 32.13 4.67 30.96 2.8 28.62C0.93 26.28 0 23.37 0 19.89C0 14.98 1.88 10.59 5.63 6.7C9.4 2.82 13.91 0.58 19.17 0Z" fill="#CDD1E0"/>
<path d="M42.2819 0V2.03C36.2219 5.52 32.4819 9.94 31.0619 15.29C32.6019 14.29 34.0119 13.79 35.2919 13.79C37.3619 13.79 39.1219 14.64 40.5719 16.33C42.0119 18.02 42.7419 20.1 42.7419 22.55C42.7419 25.26 41.8019 27.54 39.9119 29.37C38.0219 31.21 35.6919 32.13 32.9219 32.13C30.1519 32.13 27.8019 30.96 25.9519 28.62C24.1019 26.28 23.1719 23.37 23.1719 19.89C23.1719 14.98 25.0419 10.59 28.7819 6.7C32.5219 2.81 37.0219 0.58 42.2919 0L42.2819 0Z" fill="#CDD1E0"/>
</svg>
